{
  "accessors": [
    {
      "bufferView": 2,
      "componentType": 5126,
      "count": 2821,
      "max": [
        4.781664848327637,
        4.802383899688721,
        10.801616668701172
      ],
      "min": [
        -4.7732439041137695,
        -2.386461019515991,
        -0.18384799361228943
      ],
      "type": "VEC3"
    },
    {
      "bufferView": 2,
      "byteOffset": 33852,
      "componentType": 5126,
      "count": 2821,
      "max": [
        0.999888002872467,
        1.0,
        0.9999988675117493
      ],
      "min": [
        -0.99988853931427,
        -1.0,
        -0.9999971389770508
      ],
      "type": "VEC3"
    },
    {
      "bufferView": 1,
      "componentType": 5126,
      "count": 2821,
      "max": [
        0.9841129779815674,
        1.3694870471954346
      ],
      "min": [
        0.002242000075057149,
        0.03169500082731247
      ],
      "type": "VEC2"
    },
    {
      "bufferView": 0,
      "componentType": 5125,
      "count": 11253,
      "type": "SCALAR"
    }
  ],
  "asset": {
    "extras": {
      "author": "guinavarro.al (https://sketchfab.com/guinavarro.al)",
      "license": "CC-BY-4.0 (http://creativecommons.org/licenses/by/4.0/)",
      "source": "https://sketchfab.com/3d-models/jerry-tom-and-jerry-a73d5990e2da43c4a478cc15f0d7ad92",
      "title": "Jerry - Tom And Jerry"
    },
    "generator": "Sketchfab-14.90.0",
    "version": "2.0"
  },
  "bufferViews": [
    {
      "buffer": 0,
      "byteLength": 45012,
      "name": "floatBufferViews",
      "target": 34963
    },
    {
      "buffer": 0,
      "byteLength": 22568,
      "byteOffset": 45012,
      "byteStride": 8,
      "name": "floatBufferViews",
      "target": 34962
    },
    {
      "buffer": 0,
      "byteLength": 67704,
      "byteOffset": 67580,
      "byteStride": 12,
      "name": "floatBufferViews",
      "target": 34962
    }
  ],
  "buffers": [
    {
      "byteLength": 135284,
      "uri": "scene.bin"
    }
  ],
  "images": [
    {
      "uri": "textures/jerry_baseColor.png"
    }
  ],
  "materials": [
    {
      "doubleSided": true,
      "name": "jerry",
      "pbrMetallicRoughness": {
        "baseColorTexture": {
          "index": 0
        },
        "metallicFactor": 0.0
      }
    }
  ],
  "meshes": [
    {
      "name": "Object_0",
      "primitives": [
        {
          "attributes": {
            "NORMAL": 1,
            "POSITION": 0,
            "TEXCOORD_0": 2
          },
          "indices": 3,
          "material": 0,
          "mode": 4
        }
      ]
    }
  ],
  "nodes": [
    {
      "children": [
        1
      ],
      "matrix": [
        1.0,
        0.0,
        0.0,
        0.0,
        0.0,
        2.220446049250313e-16,
        -1.0,
        0.0,
        0.0,
        1.0,
        2.220446049250313e-16,
        0.0,
        0.0,
        0.0,
        0.0,
        1.0
      ],
      "name": "Sketchfab_model"
    },
    {
      "children": [
        2
      ],
      "name": "JERRY.PSDout.obj.cleaner.materialmerger.gles"
    },
    {
      "mesh": 0,
      "name": "Object_2"
    }
  ],
  "samplers": [
    {
      "magFilter": 9729,
      "minFilter": 9987,
      "wrapS": 10497,
      "wrapT": 10497
    }
  ],
  "scene": 0,
  "scenes": [
    {
      "name": "Sketchfab_Scene",
      "nodes": [
        0
      ]
    }
  ],
  "textures": [
    {
      "sampler": 0,
      "source": 0
    }
  ]
}
