{
  "accessors": [
    {
      "bufferView": 2,
      "componentType": 5126,
      "count": 1468,
      "max": [
        1.2888039350509644,
        1.1651840209960938,
        1.2888039350509644
      ],
      "min": [
        -1.2888039350509644,
        -1.379801630973816,
        -1.288804054260254
      ],
      "type": "VEC3"
    },
    {
      "bufferView": 2,
      "byteOffset": 17616,
      "componentType": 5126,
      "count": 1468,
      "max": [
        0.999873161315918,
        1.0,
        0.999873161315918
      ],
      "min": [
        -0.999873161315918,
        -1.0,
        -0.999873161315918
      ],
      "type": "VEC3"
    },
    {
      "bufferView": 1,
      "componentType": 5126,
      "count": 1468,
      "max": [
        0.995241105556488,
        0.9948148131370544
      ],
      "min": [
        0.0062265545129776,
        0.011868730187416077
      ],
      "type": "VEC2"
    },
    {
      "bufferView": 0,
      "componentType": 5125,
      "count": 6720,
      "type": "SCALAR"
    },
    {
      "bufferView": 2,
      "byteOffset": 35232,
      "componentType": 5126,
      "count": 1468,
      "max": [
        1.2188680171966553,
        1.0951839685440063,
        1.2188680171966553
      ],
      "min": [
        -1.2188680171966553,
        -1.3098037242889404,
        -1.2188681364059448
      ],
      "type": "VEC3"
    },
    {
      "bufferView": 2,
      "byteOffset": 52848,
      "componentType": 5126,
      "count": 1468,
      "max": [
        0.999873161315918,
        1.0,
        0.999873161315918
      ],
      "min": [
        -0.999873161315918,
        -1.0,
        -0.999873161315918
      ],
      "type": "VEC3"
    },
    {
      "bufferView": 1,
      "byteOffset": 11744,
      "componentType": 5126,
      "count": 1468,
      "max": [
        0.995241105556488,
        0.9948148131370544
      ],
      "min": [
        0.0062265545129776,
        0.011868730187416077
      ],
      "type": "VEC2"
    },
    {
      "bufferView": 0,
      "byteOffset": 26880,
      "componentType": 5125,
      "count": 6720,
      "type": "SCALAR"
    }
  ],
  "asset": {
    "extras": {
      "author": "besfortk1 (https://sketchfab.com/besfortk1)",
      "license": "CC-BY-4.0 (http://creativecommons.org/licenses/by/4.0/)",
      "source": "https://sketchfab.com/3d-models/sun-shroom-2e45aedf7d6e4ad8967b0b3bd7bea0cf",
      "title": "Sun-shroom"
    },
    "generator": "Sketchfab-12.66.0",
    "version": "2.0"
  },
  "bufferViews": [
    {
      "buffer": 0,
      "byteLength": 53760,
      "name": "floatBufferViews",
      "target": 34963
    },
    {
      "buffer": 0,
      "byteLength": 23488,
      "byteOffset": 53760,
      "byteStride": 8,
      "name": "floatBufferViews",
      "target": 34962
    },
    {
      "buffer": 0,
      "byteLength": 70464,
      "byteOffset": 77248,
      "byteStride": 12,
      "name": "floatBufferViews",
      "target": 34962
    }
  ],
  "buffers": [
    {
      "byteLength": 147712,
      "uri": "scene.bin"
    }
  ],
  "images": [
    {
      "uri": "textures/sun-shroom_baseColor.png"
    }
  ],
  "materials": [
    {
      "doubleSided": true,
      "name": "sun-shroom",
      "pbrMetallicRoughness": {
        "baseColorTexture": {
          "index": 0
        },
        "metallicFactor": 0.0,
        "roughnessFactor": 0.3
      }
    },
    {
      "name": "Outline"
    }
  ],
  "meshes": [
    {
      "name": "Object_0",
      "primitives": [
        {
          "attributes": {
            "NORMAL": 1,
            "POSITION": 0,
            "TEXCOORD_0": 2
          },
          "indices": 3,
          "material": 0,
          "mode": 4
        }
      ]
    },
    {
      "name": "Object_1",
      "primitives": [
        {
          "attributes": {
            "NORMAL": 5,
            "POSITION": 4,
            "TEXCOORD_0": 6
          },
          "indices": 7,
          "material": 1,
          "mode": 4
        }
      ]
    }
  ],
  "nodes": [
    {
      "children": [
        1
      ],
      "matrix": [
        1.0,
        0.0,
        0.0,
        0.0,
        0.0,
        2.220446049250313e-16,
        -1.0,
        0.0,
        0.0,
        1.0,
        2.220446049250313e-16,
        0.0,
        0.0,
        0.0,
        0.0,
        1.0
      ],
      "name": "Sketchfab_model"
    },
    {
      "children": [
        2
      ],
      "name": "root"
    },
    {
      "children": [
        3
      ],
      "matrix": [
        1.0,
        0.0,
        0.0,
        0.0,
        0.0,
        2.220446049250313e-16,
        1.0,
        0.0,
        0.0,
        -1.0,
        2.220446049250313e-16,
        0.0,
        0.0,
        0.0,
        0.0,
        1.0
      ],
      "name": "GLTF_SceneRootNode"
    },
    {
      "children": [
        4,
        5
      ],
      "name": "Circle_1"
    },
    {
      "mesh": 0,
      "name": "Object_4"
    },
    {
      "mesh": 1,
      "name": "Object_5"
    }
  ],
  "samplers": [
    {
      "magFilter": 9729,
      "minFilter": 9987,
      "wrapS": 10497,
      "wrapT": 10497
    }
  ],
  "scene": 0,
  "scenes": [
    {
      "name": "Sketchfab_Scene",
      "nodes": [
        0
      ]
    }
  ],
  "textures": [
    {
      "sampler": 0,
      "source": 0
    }
  ]
}
