{
  "accessors": [
    {
      "bufferView": 2,
      "componentType": 5126,
      "count": 905,
      "max": [
        7358.12744140625,
        2107.5419921875,
        3369.44140625
      ],
      "min": [
        3134.723876953125,
        -1829.4674072265625,
        -4.4036865234375
      ],
      "type": "VEC3"
    },
    {
      "bufferView": 2,
      "byteOffset": 10860,
      "componentType": 5126,
      "count": 905,
      "max": [
        0.9989362955093384,
        0.9997903108596802,
        0.9926292300224304
      ],
      "min": [
        -0.9986633062362671,
        -0.9946421384811401,
        -0.9777469038963318
      ],
      "type": "VEC3"
    },
    {
      "bufferView": 1,
      "componentType": 5126,
      "count": 905,
      "max": [
        0.9995099902153015,
        9.850930213928223
      ],
      "min": [
        0.0004900000058114529,
        -0.8080099821090698
      ],
      "type": "VEC2"
    },
    {
      "bufferView": 0,
      "componentType": 5125,
      "count": 3921,
      "type": "SCALAR"
    },
    {
      "bufferView": 2,
      "byteOffset": 21720,
      "componentType": 5126,
      "count": 3136,
      "max": [
        7433.5234375,
        2654.37646484375,
        3939.19140625
      ],
      "min": [
        2577.778076171875,
        -2442.169677734375,
        372.8279113769531
      ],
      "type": "VEC3"
    },
    {
      "bufferView": 2,
      "byteOffset": 59352,
      "componentType": 5126,
      "count": 3136,
      "max": [
        0.999720573425293,
        0.9985181093215942,
        0.9942469000816345
      ],
      "min": [
        -0.9996461272239685,
        -0.9990026354789734,
        -0.9996004700660706
      ],
      "type": "VEC3"
    },
    {
      "bufferView": 1,
      "byteOffset": 7240,
      "componentType": 5126,
      "count": 3136,
      "max": [
        0.999019980430603,
        0.999019980430603
      ],
      "min": [
        0.0009800000116229057,
        0.0009800000116229057
      ],
      "type": "VEC2"
    },
    {
      "bufferView": 1,
      "byteOffset": 32328,
      "componentType": 5126,
      "count": 3136,
      "max": [
        0.999019980430603,
        0.999019980430603
      ],
      "min": [
        0.0009800000116229057,
        0.0009800000116229057
      ],
      "type": "VEC2"
    },
    {
      "bufferView": 0,
      "byteOffset": 15684,
      "componentType": 5125,
      "count": 4776,
      "type": "SCALAR"
    }
  ],
  "asset": {
    "extras": {
      "author": "dimal965 (https://sketchfab.com/dimal965)",
      "license": "CC-BY-4.0 (http://creativecommons.org/licenses/by/4.0/)",
      "source": "https://sketchfab.com/3d-models/sakura-c562e993e5ba411f8edd4b65ef0069d0",
      "title": "sakura"
    },
    "generator": "Sketchfab-15.32.0",
    "version": "2.0"
  },
  "bufferViews": [
    {
      "buffer": 0,
      "byteLength": 34788,
      "name": "floatBufferViews",
      "target": 34963
    },
    {
      "buffer": 0,
      "byteLength": 57416,
      "byteOffset": 34788,
      "byteStride": 8,
      "name": "floatBufferViews",
      "target": 34962
    },
    {
      "buffer": 0,
      "byteLength": 96984,
      "byteOffset": 92204,
      "byteStride": 12,
      "name": "floatBufferViews",
      "target": 34962
    }
  ],
  "buffers": [
    {
      "byteLength": 189188,
      "uri": "scene.bin"
    }
  ],
  "extensionsUsed": [
    "KHR_materials_specular"
  ],
  "images": [
    {
      "uri": "textures/mossybark02_0Mat_baseColor.png"
    },
    {
      "uri": "textures/sakura_branch_new01_1Mat_baseColor.png"
    }
  ],
  "materials": [
    {
      "doubleSided": true,
      "extensions": {
        "KHR_materials_specular": {
          "specularColorFactor": [
            1.0,
            1.0,
            1.0
          ],
          "specularFactor": 0.1386670892711292
        }
      },
      "name": "mossybark02_0Mat",
      "pbrMetallicRoughness": {
        "baseColorTexture": {
          "index": 0
        },
        "metallicFactor": 0.0,
        "roughnessFactor": 0.9796504225936239
      }
    },
    {
      "alphaCutoff": 0.5104777462178932,
      "alphaMode": "MASK",
      "doubleSided": true,
      "extensions": {
        "KHR_materials_specular": {
          "specularColorFactor": [
            1.0,
            1.0,
            1.0
          ],
          "specularFactor": 0.42514415282027523
        }
      },
      "name": "sakura_branch_new01_1Mat",
      "pbrMetallicRoughness": {
        "baseColorTexture": {
          "index": 1
        },
        "metallicFactor": 0.0,
        "roughnessFactor": 0.5382843071521742
      }
    }
  ],
  "meshes": [
    {
      "name": "Object001_mossybark02_0Mat_0",
      "primitives": [
        {
          "attributes": {
            "NORMAL": 1,
            "POSITION": 0,
            "TEXCOORD_0": 2
          },
          "indices": 3,
          "material": 0,
          "mode": 4
        }
      ]
    },
    {
      "name": "Object002_sakura_branch_new01_1Mat_0",
      "primitives": [
        {
          "attributes": {
            "NORMAL": 5,
            "POSITION": 4,
            "TEXCOORD_0": 6,
            "TEXCOORD_1": 7
          },
          "indices": 8,
          "material": 1,
          "mode": 4
        }
      ]
    }
  ],
  "nodes": [
    {
      "children": [
        1
      ],
      "matrix": [
        1.0,
        0.0,
        0.0,
        0.0,
        0.0,
        2.220446049250313e-16,
        -1.0,
        0.0,
        0.0,
        1.0,
        2.220446049250313e-16,
        0.0,
        0.0,
        0.0,
        0.0,
        1.0
      ],
      "name": "Sketchfab_model"
    },
    {
      "children": [
        2
      ],
      "matrix": [
        0.009999999776482582,
        0.0,
        0.0,
        0.0,
        0.0,
        0.0,
        0.009999999776482582,
        0.0,
        0.0,
        -0.009999999776482582,
        0.0,
        0.0,
        0.0,
        0.0,
        0.0,
        1.0
      ],
      "name": "e0d42550134a402a96d7be0eeeceea2b.fbx"
    },
    {
      "children": [
        3,
        6
      ],
      "name": "RootNode"
    },
    {
      "children": [
        4
      ],
      "matrix": [
        1.0,
        0.0,
        0.0,
        0.0,
        0.0,
        2.220446049250313e-16,
        -1.0,
        0.0,
        0.0,
        1.0,
        2.220446049250313e-16,
        0.0,
        -100.418701171875,
        1682.518798828125,
        -57.095794677734375,
        1.0
      ],
      "name": "Object001"
    },
    {
      "children": [
        5
      ],
      "matrix": [
        1.0,
        0.0,
        -0.0,
        0.0,
        0.0,
        1.0,
        0.0,
        0.0,
        0.0,
        0.0,
        1.0,
        0.0,
        -5246.42578125,
        -139.037292480469,
        -1682.51879882813,
        1.0
      ],
      "name": "Object_4"
    },
    {
      "mesh": 0,
      "name": "Object001_mossybark02_0Mat_0"
    },
    {
      "children": [
        7
      ],
      "matrix": [
        1.0,
        0.0,
        0.0,
        0.0,
        0.0,
        2.220446049250313e-16,
        -1.0,
        0.0,
        0.0,
        1.0,
        2.220446049250313e-16,
        0.0,
        -311.7374267578125,
        2156.009765625,
        -26.62420654296875,
        1.0
      ],
      "name": "Object002"
    },
    {
      "children": [
        8
      ],
      "matrix": [
        1.0,
        0.0,
        -0.0,
        0.0,
        0.0,
        1.0,
        0.0,
        0.0,
        0.0,
        0.0,
        1.0,
        0.0,
        -5005.65087890625,
        -106.103393554688,
        -2156.009765625,
        1.0
      ],
      "name": "Object_7"
    },
    {
      "mesh": 1,
      "name": "Object002_sakura_branch_new01_1Mat_0"
    }
  ],
  "samplers": [
    {
      "magFilter": 9729,
      "minFilter": 9987,
      "wrapS": 10497,
      "wrapT": 10497
    }
  ],
  "scene": 0,
  "scenes": [
    {
      "name": "Sketchfab_Scene",
      "nodes": [
        0
      ]
    }
  ],
  "textures": [
    {
      "sampler": 0,
      "source": 0
    },
    {
      "sampler": 0,
      "source": 1
    }
  ]
}
