{
  "accessors": [
    {
      "bufferView": 2,
      "componentType": 5126,
      "count": 9340,
      "max": [
        10.125282287597656,
        20.92240333557129,
        11.298454284667969
      ],
      "min": [
        -10.125267028808594,
        -2.980232238769531e-07,
        -13.464518547058105
      ],
      "type": "VEC3"
    },
    {
      "bufferView": 2,
      "byteOffset": 112080,
      "componentType": 5126,
      "count": 9340,
      "max": [
        1.0,
        1.0,
        1.0
      ],
      "min": [
        -1.0,
        -1.0,
        -1.0
      ],
      "type": "VEC3"
    },
    {
      "bufferView": 3,
      "componentType": 5126,
      "count": 9340,
      "max": [
        1.0,
        1.0,
        1.0,
        1.0
      ],
      "min": [
        -1.0,
        -1.0,
        -1.0,
        -1.0
      ],
      "type": "VEC4"
    },
    {
      "bufferView": 1,
      "componentType": 5126,
      "count": 9340,
      "max": [
        1.4212199449539185,
        0.986964225769043
      ],
      "min": [
        -0.42121976613998413,
        -0.20955896377563477
      ],
      "type": "VEC2"
    },
    {
      "bufferView": 1,
      "byteOffset": 74720,
      "componentType": 5126,
      "count": 9340,
      "max": [
        1.4212199449539185,
        0.986964225769043
      ],
      "min": [
        -0.42121976613998413,
        -0.20955896377563477
      ],
      "type": "VEC2"
    },
    {
      "bufferView": 1,
      "byteOffset": 149440,
      "componentType": 5126,
      "count": 9340,
      "max": [
        1.4212199449539185,
        0.986964225769043
      ],
      "min": [
        -0.42121976613998413,
        -0.20955896377563477
      ],
      "type": "VEC2"
    },
    {
      "bufferView": 0,
      "componentType": 5125,
      "count": 27402,
      "type": "SCALAR"
    },
    {
      "bufferView": 2,
      "byteOffset": 224160,
      "componentType": 5126,
      "count": 36,
      "max": [
        6.0,
        20.0,
        8.298454284667969
      ],
      "min": [
        -6.0,
        1.3700385093688965,
        -3.7015461921691895
      ],
      "type": "VEC3"
    },
    {
      "bufferView": 2,
      "byteOffset": 224592,
      "componentType": 5126,
      "count": 36,
      "max": [
        1.0,
        0.0,
        1.0
      ],
      "min": [
        -1.0,
        0.0,
        -1.0
      ],
      "type": "VEC3"
    },
    {
      "bufferView": 3,
      "byteOffset": 149440,
      "componentType": 5126,
      "count": 36,
      "max": [
        1.0,
        2.4435450995952124e-08,
        1.0,
        1.0
      ],
      "min": [
        -1.0,
        -3.0544313744940155e-08,
        -1.0,
        1.0
      ],
      "type": "VEC4"
    },
    {
      "bufferView": 1,
      "byteOffset": 224160,
      "componentType": 5126,
      "count": 36,
      "max": [
        1.0,
        1.0
      ],
      "min": [
        0.0,
        0.0
      ],
      "type": "VEC2"
    },
    {
      "bufferView": 1,
      "byteOffset": 224448,
      "componentType": 5126,
      "count": 36,
      "max": [
        1.0,
        1.0
      ],
      "min": [
        0.0,
        0.0
      ],
      "type": "VEC2"
    },
    {
      "bufferView": 1,
      "byteOffset": 224736,
      "componentType": 5126,
      "count": 36,
      "max": [
        1.0,
        1.0
      ],
      "min": [
        0.0,
        0.0
      ],
      "type": "VEC2"
    },
    {
      "bufferView": 0,
      "byteOffset": 109608,
      "componentType": 5125,
      "count": 66,
      "type": "SCALAR"
    },
    {
      "bufferView": 2,
      "byteOffset": 225024,
      "componentType": 5126,
      "count": 2212,
      "max": [
        10.373037338256836,
        22.376211166381836,
        11.298463821411133
      ],
      "min": [
        -10.373022079467773,
        1.3700385093688965,
        -11.241876602172852
      ],
      "type": "VEC3"
    },
    {
      "bufferView": 2,
      "byteOffset": 251568,
      "componentType": 5126,
      "count": 2212,
      "max": [
        1.0,
        1.0,
        1.0
      ],
      "min": [
        -1.0,
        -1.0,
        -1.0
      ],
      "type": "VEC3"
    },
    {
      "bufferView": 3,
      "byteOffset": 150016,
      "componentType": 5126,
      "count": 2212,
      "max": [
        0.9999581575393677,
        1.0,
        1.0,
        1.0
      ],
      "min": [
        -0.9896323084831238,
        -1.0,
        -1.0,
        -1.0
      ],
      "type": "VEC4"
    },
    {
      "bufferView": 1,
      "byteOffset": 225024,
      "componentType": 5126,
      "count": 2212,
      "max": [
        1.2210414409637451,
        0.9903104305267334
      ],
      "min": [
        -0.22104138135910034,
        0.003926694393157959
      ],
      "type": "VEC2"
    },
    {
      "bufferView": 1,
      "byteOffset": 242720,
      "componentType": 5126,
      "count": 2212,
      "max": [
        1.2210414409637451,
        0.9903104305267334
      ],
      "min": [
        -0.22104138135910034,
        0.003926694393157959
      ],
      "type": "VEC2"
    },
    {
      "bufferView": 1,
      "byteOffset": 260416,
      "componentType": 5126,
      "count": 2212,
      "max": [
        1.2210414409637451,
        0.9903104305267334
      ],
      "min": [
        -0.22104138135910034,
        0.003926694393157959
      ],
      "type": "VEC2"
    },
    {
      "bufferView": 0,
      "byteOffset": 109872,
      "componentType": 5125,
      "count": 6774,
      "type": "SCALAR"
    },
    {
      "bufferView": 2,
      "byteOffset": 278112,
      "componentType": 5126,
      "count": 430,
      "max": [
        9.490484237670898,
        20.69708824157715,
        9.662004470825195
      ],
      "min": [
        -9.490484237670898,
        15.286336898803711,
        -10.034013748168945
      ],
      "type": "VEC3"
    },
    {
      "bufferView": 2,
      "byteOffset": 283272,
      "componentType": 5126,
      "count": 430,
      "max": [
        0.7646909952163696,
        0.9674730896949768,
        0.5968030095100403
      ],
      "min": [
        -0.7646911144256592,
        0.4103396534919739,
        -0.7726410627365112
      ],
      "type": "VEC3"
    },
    {
      "bufferView": 3,
      "byteOffset": 185408,
      "componentType": 5126,
      "count": 430,
      "max": [
        0.6406502723693848,
        0.58475661277771,
        -0.6340034604072571,
        1.0
      ],
      "min": [
        -0.6406505107879639,
        -0.7638998627662659,
        -1.0,
        -1.0
      ],
      "type": "VEC4"
    },
    {
      "bufferView": 1,
      "byteOffset": 278112,
      "componentType": 5126,
      "count": 430,
      "max": [
        1.399999976158142,
        1.399999976158142
      ],
      "min": [
        -0.4000000059604645,
        -0.40000009536743164
      ],
      "type": "VEC2"
    },
    {
      "bufferView": 1,
      "byteOffset": 281552,
      "componentType": 5126,
      "count": 430,
      "max": [
        1.399999976158142,
        1.399999976158142
      ],
      "min": [
        -0.4000000059604645,
        -0.40000009536743164
      ],
      "type": "VEC2"
    },
    {
      "bufferView": 1,
      "byteOffset": 284992,
      "componentType": 5126,
      "count": 430,
      "max": [
        1.399999976158142,
        1.399999976158142
      ],
      "min": [
        -0.4000000059604645,
        -0.40000009536743164
      ],
      "type": "VEC2"
    },
    {
      "bufferView": 0,
      "byteOffset": 136968,
      "componentType": 5125,
      "count": 1968,
      "type": "SCALAR"
    }
  ],
  "asset": {
    "extras": {
      "author": "Deerex 🦖 (https://sketchfab.com/darrencontreras)",
      "license": "CC-BY-4.0 (http://creativecommons.org/licenses/by/4.0/)",
      "source": "https://sketchfab.com/3d-models/japanese-shinto-shrine-53623498e0f941699a1c83542b5da223",
      "title": "Japanese Shinto Shrine"
    },
    "generator": "Sketchfab-15.49.0",
    "version": "2.0"
  },
  "bufferViews": [
    {
      "buffer": 0,
      "byteLength": 144840,
      "name": "floatBufferViews",
      "target": 34963
    },
    {
      "buffer": 0,
      "byteLength": 288432,
      "byteOffset": 144840,
      "byteStride": 8,
      "name": "floatBufferViews",
      "target": 34962
    },
    {
      "buffer": 0,
      "byteLength": 288432,
      "byteOffset": 433272,
      "byteStride": 12,
      "name": "floatBufferViews",
      "target": 34962
    },
    {
      "buffer": 0,
      "byteLength": 192288,
      "byteOffset": 721704,
      "byteStride": 16,
      "name": "floatBufferViews",
      "target": 34962
    }
  ],
  "buffers": [
    {
      "byteLength": 913992,
      "uri": "scene.bin"
    }
  ],
  "images": [
    {
      "uri": "textures/M_Trim_01_baseColor.png"
    },
    {
      "uri": "textures/M_Trim_01_metallicRoughness.png"
    },
    {
      "uri": "textures/M_Trim_01_normal.png"
    },
    {
      "uri": "textures/M_Concrete_baseColor.png"
    },
    {
      "uri": "textures/M_Concrete_metallicRoughness.png"
    },
    {
      "uri": "textures/M_Concrete_normal.png"
    },
    {
      "uri": "textures/M_Trim_02_baseColor.png"
    },
    {
      "uri": "textures/M_Trim_02_metallicRoughness.png"
    },
    {
      "uri": "textures/M_Trim_02_normal.png"
    },
    {
      "uri": "textures/M_RoofTile_baseColor.png"
    },
    {
      "uri": "textures/M_RoofTile_metallicRoughness.png"
    },
    {
      "uri": "textures/M_RoofTile_normal.png"
    }
  ],
  "materials": [
    {
      "doubleSided": true,
      "name": "M_Trim_01",
      "normalTexture": {
        "index": 2,
        "scale": 0.10209554924357864
      },
      "occlusionTexture": {
        "index": 1
      },
      "pbrMetallicRoughness": {
        "baseColorTexture": {
          "index": 0
        },
        "metallicRoughnessTexture": {
          "index": 1
        }
      }
    },
    {
      "doubleSided": true,
      "name": "M_Concrete",
      "normalTexture": {
        "index": 5
      },
      "occlusionTexture": {
        "index": 4
      },
      "pbrMetallicRoughness": {
        "baseColorTexture": {
          "index": 3
        },
        "metallicFactor": 0.0,
        "metallicRoughnessTexture": {
          "index": 4
        }
      }
    },
    {
      "doubleSided": true,
      "name": "M_Trim_02",
      "normalTexture": {
        "index": 8
      },
      "occlusionTexture": {
        "index": 7
      },
      "pbrMetallicRoughness": {
        "baseColorTexture": {
          "index": 6
        },
        "metallicRoughnessTexture": {
          "index": 7
        }
      }
    },
    {
      "doubleSided": true,
      "name": "M_RoofTile",
      "normalTexture": {
        "index": 11
      },
      "occlusionTexture": {
        "index": 10
      },
      "pbrMetallicRoughness": {
        "baseColorTexture": {
          "index": 9
        },
        "metallicFactor": 0.0,
        "metallicRoughnessTexture": {
          "index": 10
        }
      }
    }
  ],
  "meshes": [
    {
      "name": "SM_Shinto_Shrine_M_Trim_01_0",
      "primitives": [
        {
          "attributes": {
            "NORMAL": 1,
            "POSITION": 0,
            "TANGENT": 2,
            "TEXCOORD_0": 3,
            "TEXCOORD_1": 4,
            "TEXCOORD_2": 5
          },
          "indices": 6,
          "material": 0,
          "mode": 4
        }
      ]
    },
    {
      "name": "SM_Shinto_Shrine_M_Concrete_0",
      "primitives": [
        {
          "attributes": {
            "NORMAL": 8,
            "POSITION": 7,
            "TANGENT": 9,
            "TEXCOORD_0": 10,
            "TEXCOORD_1": 11,
            "TEXCOORD_2": 12
          },
          "indices": 13,
          "material": 1,
          "mode": 4
        }
      ]
    },
    {
      "name": "SM_Shinto_Shrine_M_Trim_02_0",
      "primitives": [
        {
          "attributes": {
            "NORMAL": 15,
            "POSITION": 14,
            "TANGENT": 16,
            "TEXCOORD_0": 17,
            "TEXCOORD_1": 18,
            "TEXCOORD_2": 19
          },
          "indices": 20,
          "material": 2,
          "mode": 4
        }
      ]
    },
    {
      "name": "SM_Shinto_Shrine_M_RoofTile_0",
      "primitives": [
        {
          "attributes": {
            "NORMAL": 22,
            "POSITION": 21,
            "TANGENT": 23,
            "TEXCOORD_0": 24,
            "TEXCOORD_1": 25,
            "TEXCOORD_2": 26
          },
          "indices": 27,
          "material": 3,
          "mode": 4
        }
      ]
    }
  ],
  "nodes": [
    {
      "children": [
        1
      ],
      "matrix": [
        -0.9984384179115295,
        -1.2404118397256322e-17,
        0.05586318299174309,
        0.0,
        0.05586318299174309,
        -2.2169786404713888e-16,
        0.9984384179115295,
        0.0,
        0.0,
        1.0,
        2.220446049250313e-16,
        0.0,
        0.0,
        0.0,
        0.0,
        1.0
      ],
      "name": "Sketchfab_model"
    },
    {
      "children": [
        2
      ],
      "matrix": [
        0.009999999776482582,
        0.0,
        0.0,
        0.0,
        0.0,
        0.0,
        0.009999999776482582,
        0.0,
        0.0,
        -0.009999999776482582,
        0.0,
        0.0,
        0.0,
        0.0,
        0.0,
        1.0
      ],
      "name": "ec08816d066344dabcf8b8c45ff46b94.fbx"
    },
    {
      "children": [
        3
      ],
      "name": "RootNode"
    },
    {
      "children": [
        4,
        5,
        6,
        7
      ],
      "name": "SM_Shinto_Shrine"
    },
    {
      "mesh": 0,
      "name": "SM_Shinto_Shrine_M_Trim_01_0"
    },
    {
      "mesh": 1,
      "name": "SM_Shinto_Shrine_M_Concrete_0"
    },
    {
      "mesh": 2,
      "name": "SM_Shinto_Shrine_M_Trim_02_0"
    },
    {
      "mesh": 3,
      "name": "SM_Shinto_Shrine_M_RoofTile_0"
    }
  ],
  "samplers": [
    {
      "magFilter": 9729,
      "minFilter": 9987,
      "wrapS": 10497,
      "wrapT": 10497
    }
  ],
  "scene": 0,
  "scenes": [
    {
      "name": "Sketchfab_Scene",
      "nodes": [
        0
      ]
    }
  ],
  "textures": [
    {
      "sampler": 0,
      "source": 0
    },
    {
      "sampler": 0,
      "source": 1
    },
    {
      "sampler": 0,
      "source": 2
    },
    {
      "sampler": 0,
      "source": 3
    },
    {
      "sampler": 0,
      "source": 4
    },
    {
      "sampler": 0,
      "source": 5
    },
    {
      "sampler": 0,
      "source": 6
    },
    {
      "sampler": 0,
      "source": 7
    },
    {
      "sampler": 0,
      "source": 8
    },
    {
      "sampler": 0,
      "source": 9
    },
    {
      "sampler": 0,
      "source": 10
    },
    {
      "sampler": 0,
      "source": 11
    }
  ]
}
